<svg width="12" height="12" viewBox="0 0 12 12" fill="none" xmlns="http://www.w3.org/2000/svg">
<path d="M6 12C2.68548 12 0 9.31452 0 6C0 2.68548 2.68548 0 6 0C9.31452 0 12 2.68548 12 6C12 9.31452 9.31452 12 6 12ZM6.69919 8.52581L4.87258 6.77419H9.29032C9.6121 6.77419 9.87097 6.51532 9.87097 6.19355V5.80645C9.87097 5.48468 9.6121 5.22581 9.29032 5.22581H4.87258L6.69919 3.47419C6.93387 3.24919 6.93871 2.87419 6.70887 2.64435L6.44274 2.38065C6.21532 2.15323 5.84758 2.15323 5.62258 2.38065L2.4121 5.58871C2.18468 5.81613 2.18468 6.18387 2.4121 6.40887L5.62258 9.61935C5.85 9.84677 6.21774 9.84677 6.44274 9.61935L6.70887 9.35565C6.93871 9.12581 6.93387 8.75081 6.69919 8.52581Z" fill="#E7A83E"/>
</svg>
