<svg width="19" height="14" viewBox="0 0 19 14" fill="none" xmlns="http://www.w3.org/2000/svg">
<path d="M18.64 4.62292C18.7848 4.5099 19 4.61562 19 4.79427V12.25C19 13.2161 18.2021 14 17.2188 14H1.78125C0.797852 14 0 13.2161 0 12.25V4.79792C0 4.61562 0.211523 4.51354 0.359961 4.62656C1.19121 5.26094 2.29336 6.06667 6.07852 8.76823C6.86152 9.32969 8.18262 10.5109 9.5 10.5036C10.8248 10.5146 12.1719 9.30781 12.9252 8.76823C16.7104 6.06667 17.8088 5.25729 18.64 4.62292ZM9.5 9.33333C10.3609 9.34792 11.6004 8.26875 12.2238 7.82396C17.1482 4.31302 17.523 4.00677 18.6586 3.13177C18.8738 2.96771 19 2.7125 19 2.44271V1.75C19 0.783854 18.2021 0 17.2188 0H1.78125C0.797852 0 0 0.783854 0 1.75V2.44271C0 2.7125 0.126172 2.96406 0.341406 3.13177C1.47695 4.00312 1.85176 4.31302 6.77617 7.82396C7.39961 8.26875 8.63906 9.34792 9.5 9.33333Z" fill="#D9D9D9"/>
</svg>
