<svg width="16" height="16" viewBox="0 0 16 16" fill="none" xmlns="http://www.w3.org/2000/svg">
<path d="M7.90841 15.3994C12.0567 15.3932 15.399 12.0321 15.399 7.87756C15.3928 3.76053 12.0129 0.393199 7.88968 0.405693C3.74141 0.418188 0.392814 3.78553 0.405308 7.93379C0.411556 12.0508 3.77889 15.4057 7.90841 15.3994Z" fill="white"/>
<path d="M7.9088 15.3994C3.77928 15.4057 0.411944 12.0571 0.399449 7.92754C0.386954 3.77928 3.74179 0.411943 7.88381 0.399449C12.0071 0.386954 15.3869 3.75429 15.3932 7.87131C15.4057 12.0258 12.0571 15.3869 7.9088 15.3994ZM12.4319 7.8838C12.3819 7.53395 12.3507 7.17785 12.2695 6.8405C12.0446 5.8784 11.5385 5.07873 10.7763 4.44775C10.5452 4.25408 10.2516 4.27282 10.0704 4.46649C9.89547 4.65391 9.89547 4.94754 10.0766 5.14746C10.1329 5.20993 10.2016 5.25991 10.2641 5.31613C11.3261 6.27823 11.6822 7.80259 11.1699 9.14578C10.6577 10.4827 9.38318 11.3761 7.97127 11.3948C6.4719 11.4136 5.1537 10.5202 4.62892 9.12703C4.10414 7.73387 4.50398 6.19701 5.6535 5.22242C5.95337 4.96628 6.01585 4.6789 5.82843 4.4415C5.62851 4.19785 5.30989 4.19785 5.01001 4.46649C3.78553 5.54104 3.24201 6.89048 3.46691 8.5148C3.78553 10.8701 5.8909 12.5631 8.23991 12.3882C10.5764 12.2132 12.4007 10.2453 12.4319 7.8838ZM7.40276 5.65349C7.40276 6.19702 7.40276 6.73429 7.40276 7.27781C7.40276 7.66515 7.59643 7.89631 7.9088 7.89006C8.20867 7.88381 8.3961 7.6589 8.40234 7.2903C8.40234 6.19701 8.40234 5.10372 8.40234 4.01043C8.40234 3.62309 8.20868 3.39194 7.89631 3.39819C7.58394 3.40444 7.40901 3.62934 7.40276 4.02917C7.40276 4.5727 7.40276 5.11622 7.40276 5.65349Z" fill="#E7A83E"/>
<path d="M12.4316 7.88381C12.4004 10.2391 10.5762 12.2132 8.2334 12.3882C5.87813 12.5631 3.77901 10.8701 3.46039 8.5148C3.24174 6.89673 3.78526 5.54729 5.0035 4.4665C5.30962 4.19786 5.62823 4.19786 5.8219 4.44151C6.01557 4.67891 5.9531 4.96629 5.64698 5.22243C4.50371 6.20327 4.09763 7.73387 4.62241 9.12704C5.14719 10.5202 6.46538 11.4136 7.96476 11.3948C9.37666 11.3761 10.6511 10.4827 11.1634 9.14579C11.6757 7.8026 11.3196 6.27823 10.2575 5.31614C10.1951 5.25991 10.1263 5.20994 10.0701 5.14746C9.88895 4.94755 9.88895 4.65392 10.0639 4.4665C10.245 4.27283 10.5387 4.25408 10.7698 4.44775C11.532 5.07874 12.0381 5.8784 12.263 6.8405C12.3504 7.18411 12.3754 7.53396 12.4316 7.88381Z" fill="white"/>
<path d="M7.40317 5.6535C7.40317 5.10998 7.40317 4.5727 7.40317 4.02918C7.40317 3.62935 7.58434 3.40444 7.89671 3.39819C8.20908 3.39195 8.40275 3.6231 8.40275 4.01043C8.40275 5.10372 8.40275 6.19702 8.40275 7.29031C8.40275 7.6589 8.21533 7.88381 7.9092 7.89006C7.59683 7.89631 7.40317 7.66515 7.40317 7.27782C7.39692 6.74054 7.40317 6.19702 7.40317 5.6535Z" fill="white"/>
</svg>
