<svg width="16" height="19" viewBox="0 0 16 19" fill="none" xmlns="http://www.w3.org/2000/svg">
<path d="M14.2857 9.50002H5.42857V5.67405C5.42857 4.20452 6.56071 2.98362 7.975 2.96878C9.40357 2.95394 10.5714 4.15999 10.5714 5.64065V6.2344C10.5714 6.72795 10.9536 7.12502 11.4286 7.12502H12.5714C13.0464 7.12502 13.4286 6.72795 13.4286 6.2344V5.64065C13.4286 2.52347 10.9821 -0.0110963 7.98214 3.65348e-05C4.98214 0.0111693 2.57143 2.57913 2.57143 5.69631V9.50002H1.71429C0.767857 9.50002 0 10.2979 0 11.2813V17.2188C0 18.2022 0.767857 19 1.71429 19H14.2857C15.2321 19 16 18.2022 16 17.2188V11.2813C16 10.2979 15.2321 9.50002 14.2857 9.50002ZM9.42857 15.1406C9.42857 15.9607 8.78929 16.625 8 16.625C7.21071 16.625 6.57143 15.9607 6.57143 15.1406V13.3594C6.57143 12.5393 7.21071 11.875 8 11.875C8.78929 11.875 9.42857 12.5393 9.42857 13.3594V15.1406Z" fill="#D9D9D9"/>
</svg>
