<svg width="15" height="15" viewBox="0 0 15 15" fill="none" xmlns="http://www.w3.org/2000/svg">
<path d="M7.5 0C3.35685 0 0 3.35685 0 7.5C0 11.6431 3.35685 15 7.5 15C11.6431 15 15 11.6431 15 7.5C15 3.35685 11.6431 0 7.5 0ZM7.5 2.90323C8.96976 2.90323 10.1613 4.09476 10.1613 5.56452C10.1613 7.03427 8.96976 8.22581 7.5 8.22581C6.03024 8.22581 4.83871 7.03427 4.83871 5.56452C4.83871 4.09476 6.03024 2.90323 7.5 2.90323ZM7.5 13.3065C5.7248 13.3065 4.13407 12.502 3.06956 11.244C3.6381 10.1734 4.75101 9.43548 6.04839 9.43548C6.12097 9.43548 6.19355 9.44758 6.2631 9.46875C6.65625 9.59577 7.06754 9.67742 7.5 9.67742C7.93246 9.67742 8.34677 9.59577 8.73689 9.46875C8.80645 9.44758 8.87903 9.43548 8.95161 9.43548C10.249 9.43548 11.3619 10.1734 11.9304 11.244C10.8659 12.502 9.2752 13.3065 7.5 13.3065Z" fill="#E7A83E"/>
</svg>
