<svg width="15" height="15" viewBox="0 0 15 15" fill="none" xmlns="http://www.w3.org/2000/svg">
<path d="M7.48874 14.9953C8.70585 14.9953 9.92296 14.9953 11.1401 14.9953C11.3601 14.9953 11.5848 14.9813 11.8048 14.9531C13.5041 14.7329 14.9318 13.1962 14.9693 11.4815C15.0067 9.90258 14.9786 8.31901 14.9833 6.74012C14.9833 6.7167 14.9833 6.69327 14.9786 6.66985C14.9412 6.25756 14.5433 5.94834 14.136 6.01393C13.7381 6.07484 13.4947 6.37 13.49 6.80572C13.49 8.2628 13.49 9.72455 13.49 11.1816C13.4853 12.5309 12.507 13.5055 11.1588 13.5055C8.71053 13.5055 6.26695 13.5055 3.81868 13.5055C2.47518 13.5055 1.49681 12.5216 1.49681 11.1723C1.49681 8.72194 1.49681 6.2763 1.49681 3.82598C1.49681 3.65731 1.51086 3.48396 1.54362 3.31998C1.76364 2.23772 2.66243 1.50684 3.77655 1.50216C4.84854 1.49747 5.92054 1.50216 6.98785 1.50216C7.41384 1.50216 7.84451 1.50684 8.2705 1.49747C8.62159 1.4881 8.90246 1.24916 8.97268 0.916517C9.07566 0.429264 8.73394 0.00760152 8.21432 0.00760152C6.71166 0.0029164 5.20432 0.00291526 3.70165 0.0122855C3.48632 0.0122855 3.2663 0.0310283 3.05565 0.0731944C1.23934 0.433949 0.00819209 1.9285 0.00351089 3.79318C-0.0011703 6.26693 -0.0011703 8.73599 0.00351089 11.2097C0.00351089 11.4534 0.0175539 11.7017 0.0643658 11.9406C0.420137 13.7584 1.91812 14.9906 3.77655 15C5.01707 15 6.2529 14.9953 7.48874 14.9953ZM14.974 2.10185C14.974 2.03157 14.974 1.9613 14.974 1.89102C14.974 1.85822 14.9693 1.82074 14.9599 1.78795C14.8008 0.949311 14.328 0.368354 13.5181 0.110672C12.7083 -0.14701 11.978 0.0497699 11.3741 0.654151C9.37526 2.64533 7.38107 4.64119 5.39624 6.64174C5.28389 6.75419 5.19027 6.91816 5.15282 7.07277C4.93749 7.88798 4.7362 8.7032 4.53959 9.52309C4.38979 10.1415 4.86259 10.6147 5.47583 10.4648C6.27163 10.268 7.06275 10.0666 7.85856 9.87448C8.08325 9.81826 8.26582 9.71518 8.42498 9.5512C10.3817 7.58813 12.3385 5.63444 14.2952 3.67606C14.3467 3.62452 14.3935 3.57767 14.4403 3.52613C14.8008 3.11852 14.9833 2.64532 14.974 2.10185Z" fill="white"/>
<path d="M7.4886 14.9954C6.25276 14.9954 5.01693 15.0001 3.78577 14.9954C1.92734 14.9861 0.429355 13.7539 0.0735845 11.9361C0.0267726 11.6971 0.0127296 11.4488 0.0127296 11.2052C0.0080484 8.73144 0.00336721 6.26237 0.0127296 3.78863C0.0174108 1.92863 1.24857 0.429399 3.06487 0.0686446C3.27552 0.0264785 3.49553 0.00773574 3.71087 0.00773574C5.21353 0.00305061 6.72088 0.00305176 8.22354 0.00305176C8.73847 0.00305176 9.08488 0.424714 8.9819 0.911967C8.91168 1.24461 8.63081 1.48355 8.27972 1.49292C7.85373 1.50229 7.42306 1.49761 6.99707 1.49761C5.92508 1.49761 4.85309 1.49292 3.78577 1.49761C2.67165 1.50229 1.77754 2.23317 1.55284 3.31543C1.52007 3.47941 1.50603 3.65276 1.50603 3.82143C1.50135 6.27175 1.50135 8.71738 1.50603 11.1677C1.50603 12.517 2.4844 13.5009 3.8279 13.5009C6.27616 13.5009 8.71975 13.5009 11.168 13.5009C12.5162 13.5009 13.4946 12.5217 13.4993 11.1771C13.5039 9.71999 13.4993 8.25824 13.4993 6.80117C13.4993 6.36545 13.7427 6.07498 14.1453 6.00938C14.5525 5.94379 14.9504 6.25301 14.9879 6.6653C14.9879 6.68873 14.9925 6.71215 14.9925 6.73558C14.9925 8.31915 15.016 9.89804 14.9785 11.4769C14.9411 13.1917 13.5133 14.7284 11.814 14.9486C11.594 14.9767 11.3693 14.9908 11.1493 14.9908C9.92281 15.0001 8.70571 14.9954 7.4886 14.9954Z" fill="#E7A83E"/>
<path d="M14.9738 2.10203C14.9785 2.6455 14.7959 3.1187 14.4355 3.52631C14.3887 3.57784 14.3372 3.62938 14.2904 3.67623C12.3336 5.63462 10.3769 7.59299 8.42016 9.55138C8.25632 9.71536 8.07375 9.82312 7.85373 9.87466C7.05793 10.0667 6.26681 10.2682 5.47101 10.465C4.85777 10.6149 4.38497 10.137 4.53477 9.52327C4.73606 8.70806 4.93267 7.88816 5.14801 7.07295C5.19014 6.91834 5.27908 6.75436 5.39143 6.64192C7.38093 4.64137 9.37513 2.64551 11.3693 0.654329C11.9732 0.0546328 12.7035 -0.142147 13.5133 0.11085C14.3278 0.368532 14.8006 0.949489 14.9551 1.78813C14.9598 1.82092 14.9691 1.8584 14.9691 1.8912C14.9785 1.96147 14.9738 2.03175 14.9738 2.10203ZM6.28085 8.71742C6.63194 8.63309 6.94559 8.56281 7.24986 8.4738C7.35285 8.44569 7.45584 8.38478 7.53074 8.31451C8.69167 7.15728 9.84792 6.00005 11.0089 4.83814C11.051 4.79598 11.0884 4.75381 11.1212 4.72101C10.8357 4.43522 10.5595 4.1588 10.2786 3.87769C10.2646 3.89175 10.2318 3.91049 10.2084 3.93392C9.01467 5.12394 7.82565 6.31864 6.63662 7.51335C6.60385 7.54614 6.56641 7.58363 6.55704 7.6258C6.46342 7.97718 6.37448 8.32856 6.28085 8.71742ZM12.2026 3.64344C12.5677 3.278 12.9235 2.92661 13.2746 2.56586C13.5461 2.28943 13.5601 1.92399 13.3073 1.67568C13.0545 1.42737 12.6941 1.44143 12.4179 1.71785C12.0902 2.04112 11.7625 2.36908 11.4395 2.69704C11.4068 2.72984 11.3834 2.76263 11.3599 2.79543C11.6455 3.08122 11.917 3.35764 12.2026 3.64344Z" fill="#E7A83E"/>
</svg>
