<svg width="1257" height="1416" viewBox="0 0 1257 1416" fill="none" xmlns="http://www.w3.org/2000/svg">
<path d="M1256.5 0.699951H0.799805V1256.4H1256.5V0.699951Z" fill="white"/>
<path d="M349.8 110.8H110.8V349.8H349.8V110.8ZM311.3 311.2H149.4V149.3H311.3V311.2Z" fill="#1D2342"/>
<path d="M277.6 180.9H178.9V279.6H277.6V180.9Z" fill="#1D2342"/>
<path d="M509.2 110.8H429.5V190.5H509.2V110.8Z" fill="#1D2342"/>
<path d="M190.5 509.1H110.9V588.7V668.4H190.5V588.7V509.1Z" fill="#1D2342"/>
<path d="M349.9 509.1H270.2V588.7H349.9V509.1Z" fill="#1D2342"/>
<path d="M270.2 429.4H190.5V509H270.2V429.4Z" fill="#1D2342"/>
<path d="M987.1 509.1V429.4H907.5H827.8V509.1H907.5V588.7H987.1V668.4H907.5H827.8V588.7V509.1H748.1V429.4H827.8V349.8V270.1H748.1V190.5H827.8V110.8H748.1H668.5H588.8V190.5H668.5V270.1V349.8H588.8V429.4H668.5V509.1V588.7H588.8V668.4H668.5V748V827.7H588.8V907.3H668.5V987V1066.6H588.8V1146.3H668.5H748.1H827.8V1066.6H748.1V987H827.8V907.3V827.7H748.1V748H827.8H907.5V827.7H987.1V748H1066.8V827.7H1146.4V748V668.4H1066.8V588.7H1146.4V509.1H1066.8H987.1Z" fill="#1D2342"/>
<path d="M907.5 110.8V349.8H1146.5V110.8H907.5ZM1107.9 311.2H946V149.3H1107.9V311.2Z" fill="#1D2342"/>
<path d="M1074.1 180.9H975.4V279.6H1074.1V180.9Z" fill="#1D2342"/>
<path d="M110.9 1146.3H349.9V907.3H110.9V1146.3ZM149.4 945.9H311.3V1107.8H149.4V945.9Z" fill="#1D2342"/>
<path d="M277.6 977.5H178.9V1076.2H277.6V977.5Z" fill="#1D2342"/>
<path d="M588.8 907.3H509.2V827.7H588.8V748V668.4H509.2V588.7H588.8V509.1H509.2V429.4V349.8H588.8V270.1V190.5H509.2V270.1H429.5V349.8V429.4H349.8V509.1H429.5V588.7H349.8V668.4H429.5V748H349.8V668.4H270.2H190.5V748H270.2V827.7H349.8H429.5V907.3V987H509.2V1066.6H588.8V987V907.3Z" fill="#1D2342"/>
<path d="M509.2 1066.6H429.5V1146.3H509.2V1066.6Z" fill="#1D2342"/>
<path d="M190.6 748H110.9V827.7H190.6V748Z" fill="#1D2342"/>
<path d="M907.5 1146.3H1146.5V907.3H907.5V1146.3ZM946 945.9H1107.9V1107.8H946V945.9Z" fill="#1D2342"/>
<path d="M1074.1 977.5H975.4V1076.2H1074.1V977.5Z" fill="#1D2342"/>
<path d="M395.2 875.5C395.2 886 386.7 894.5 376.2 894.5C365.7 894.5 357.2 886 357.2 875.5V794.9C357.2 784.4 365.7 775.9 376.2 775.9C386.7 775.9 395.2 784.4 395.2 794.9V875.5Z" fill="#22282A"/>
<path d="M395.9 734.1C395.9 744.6 387.4 753.1 376.9 753.1C366.4 753.1 357.9 744.6 357.9 734.1V546.1C357.9 535.6 366.4 527.1 376.9 527.1C387.4 527.1 395.9 535.6 395.9 546.1V734.1Z" fill="#22282A"/>
<path d="M388.8 726.5C388.8 735 383.2 742 376.2 742C369.2 742 363.6 735.1 363.6 726.5V553.6C363.6 545.1 369.2 538.1 376.2 538.1C383.2 538.1 388.8 545 388.8 553.6V726.5Z" fill="#343C40"/>
<path d="M388.1 867.9C388.1 876.4 382.6 883.4 375.9 883.4C369.1 883.4 363.7 876.5 363.7 867.9V802.4C363.7 793.9 369.2 786.9 375.9 786.9C382.7 786.9 388.1 793.8 388.1 802.4V867.9Z" fill="#343C40"/>
<path d="M900.1 1372.3C900.1 1396 880.9 1415.2 857.2 1415.2H419.8C396.1 1415.2 376.9 1396 376.9 1372.3V446C376.9 422.3 396.1 403.1 419.8 403.1H857.3C881 403.1 900.2 422.3 900.2 446V1372.3H900.1Z" fill="#22282A"/>
<path d="M857.3 403.1H419.8C396.1 403.1 376.9 422.3 376.9 446V461C376.9 437.3 396.1 418.1 419.8 418.1H857.3C881 418.1 900.2 437.3 900.2 461V446C900.1 422.3 880.9 403.1 857.3 403.1Z" fill="#343C40"/>
<path d="M419.8 1415.2H857.3C881 1415.2 900.2 1396 900.2 1372.3V1357.3C900.2 1381 881 1400.2 857.3 1400.2H419.8C396.1 1400.2 376.9 1381 376.9 1357.3V1372.3C376.9 1396 396.1 1415.2 419.8 1415.2Z" fill="#343C40"/>
<path d="M884.4 1344.5C884.4 1366.8 866.4 1384.8 844.1 1384.8H433C410.7 1384.8 392.7 1366.8 392.7 1344.5V473.8C392.7 451.5 410.7 433.5 433 433.5H844.1C866.4 433.5 884.4 451.5 884.4 473.8V1344.5Z" fill="#E99714"/>
<path d="M416.8 436.9C402.6 443.1 392.7 457.3 392.7 473.8V1344.4C392.7 1366.7 410.7 1384.7 433 1384.7H844.1C866.4 1384.7 884.4 1366.7 884.4 1344.4V1279C824.6 1182.1 464 515 416.8 436.9Z" fill="#FEB540"/>
<path d="M645.7 426.6V425.9L638.6 426.3L631.4 425.9V426.6L492.4 433.5C492.4 433.5 525.3 436.2 533.1 442.5C542 449.6 545.6 457.2 549.5 467.2C554.8 480.6 565.2 480 578.6 480H631.3H645.6H698.3C711.7 480 722.2 480.5 727.4 467.2C731.3 457.2 734.9 449.7 743.8 442.5C751.7 436.2 784.5 433.5 784.5 433.5L645.7 426.6Z" fill="#22282A"/>
<path d="M658.5 449.6C658.5 454.7 654.3 458.9 649.2 458.9H593.5C588.4 458.9 584.2 454.7 584.2 449.6C584.2 444.5 588.4 440.3 593.5 440.3H649.2C654.4 440.3 658.5 444.5 658.5 449.6Z" fill="black"/>
<path d="M692.9 449.6C692.9 454.7 688.7 458.9 683.6 458.9C678.5 458.9 674.3 454.7 674.3 449.6C674.3 444.5 678.5 440.3 683.6 440.3C688.7 440.3 692.9 444.5 692.9 449.6Z" fill="black"/>
<path d="M797.5 665.5H480.7V982.3H797.5V665.5Z" fill="white"/>
<path d="M820.401 923.7V1001.8H739V1021.2H838.1V923.7H820.401Z" fill="white"/>
<path d="M539.3 642.6H461.2V724.1H441.8V624.9H539.3V642.6Z" fill="white"/>
<path d="M569.2 694.1H509.3V754H569.2V694.1ZM559.6 744.4H519V703.8H559.6V744.4Z" fill="#1D2342"/>
<path d="M551.1 711.7H526.4V736.4H551.1V711.7Z" fill="#1D2342"/>
<path d="M609.2 694.1H589.2V714.1H609.2V694.1Z" fill="#1D2342"/>
<path d="M529.3 793.9H509.4V813.9V833.9H529.3V813.9V793.9Z" fill="#1D2342"/>
<path d="M569.3 793.9H549.3V813.9H569.3V793.9Z" fill="#1D2342"/>
<path d="M549.3 774H529.3V794H549.3V774Z" fill="#1D2342"/>
<path d="M729 793.9V774H709H689V793.9H709V813.9H729V833.9H709H689V813.9V793.9H669.1V774H689V754V734.1H669.1V714.1H689V694.1H669.1H649.1H629.1V714.1H649.1V734.1V754H629.1V774H649.1V793.9V813.9H629.1V833.9H649.1V853.8V873.8H629.1V893.8H649.1V913.7V933.7H629.1V953.6H649.1H669.1H689V933.7H669.1V913.7H689V893.8V873.8H669.1V853.8H689H709V873.8H729V853.8H748.9V873.8H768.9V853.8V833.9H748.9V813.9H768.9V793.9H748.9H729Z" fill="#1D2342"/>
<path d="M709 694.1V754H768.901V694.1H709ZM759.2 744.4H718.6V703.8H759.2V744.4Z" fill="#1D2342"/>
<path d="M750.7 711.7H726V736.4H750.7V711.7Z" fill="#1D2342"/>
<path d="M509.4 953.6H569.3V893.7H509.4V953.6ZM519 903.4H559.6V944H519V903.4Z" fill="#1D2342"/>
<path d="M551.1 911.3H526.4V936H551.1V911.3Z" fill="#1D2342"/>
<path d="M629.1 893.8H609.2V873.8H629.1V853.8V833.9H609.2V813.9H629.1V793.9H609.2V774V754H629.1V734.1V714.1H609.2V734.1H589.2V754V774H569.2V793.9H589.2V813.9H569.2V833.9H589.2V853.8H569.2V833.9H549.3H529.3V853.8H549.3V873.8H569.2H589.2V893.8V913.7H609.2V933.7H629.1V913.7V893.8Z" fill="#1D2342"/>
<path d="M609.2 933.7H589.2V953.7H609.2V933.7Z" fill="#1D2342"/>
<path d="M529.4 853.8H509.4V873.8H529.4V853.8Z" fill="#1D2342"/>
<path d="M709 953.6H768.901V893.7H709V953.6ZM718.7 903.4H759.301V944H718.7V903.4Z" fill="#1D2342"/>
<path d="M750.7 911.3H726V936H750.7V911.3Z" fill="#1D2342"/>
<path d="M788.5 1159.2C788.5 1176.6 774.4 1190.7 757 1190.7H548.9C531.5 1190.7 517.4 1176.6 517.4 1159.2V1106.7C517.4 1089.3 531.5 1075.2 548.9 1075.2H757.1C774.5 1075.2 788.6 1089.3 788.6 1106.7V1159.2H788.5Z" fill="#0472A4"/>
<path d="M757.1 1075.3H548.9C538.6 1075.3 529.5 1080.3 523.7 1087.9C528.3 1085.2 533.7 1083.7 539.4 1083.7H747.5C764.9 1083.7 779 1097.8 779 1115.2V1167.6C779 1174.7 776.6 1181.2 772.7 1186.4C782.1 1181 788.4 1170.8 788.4 1159.2V1106.7C788.5 1089.4 774.4 1075.3 757.1 1075.3Z" fill="#A0BECE"/>
<path d="M591.8 1141.3L591.701 1142.4L591.6 1143.5L591.401 1144.5L591.1 1145.9L590.8 1146.8L590.201 1148.1L589.8 1148.9L589 1150L588.401 1150.8L587.6 1151.6L586.8 1152.3L585.5 1153.1L584.701 1153.7L583.701 1154.2L582.8 1154.6L581.3 1155.1L579.401 1155.7L578.401 1155.9L576.8 1156.2L575.8 1156.3L574.401 1156.4L573.5 1156.5L572 1156.6L568.901 1156.8H567.5L566.6 1156.7L565.1 1156.6L564.1 1156.5L563 1156.3L562 1156L560.6 1155.6L559.701 1155.2L558.701 1154.8L557.8 1154.4L557 1153.9L555 1152.5L554.201 1151.9L553.1 1151L552.3 1150.4L551.6 1149.7L551.1 1149.1L551 1148.7L551.3 1148.1L551.6 1147.8L552.201 1147.1L554 1145.4L554.6 1144.7L555.701 1143L556.3 1142.3L556.901 1141.6L557.6 1141.2L558.3 1141.3L559 1141.8L561 1143.2L562 1143.7L562.901 1144.1L564.401 1144.8L565.401 1145.1L566.401 1145.4L567.401 1145.6L568.901 1145.7L569.901 1145.8L573.901 1145.5L574.901 1145.4L575.401 1145.3L576.401 1144.9L577.201 1144.4L577.8 1143.8L578.1 1143.4L578.5 1142.4L578.401 1141.3L578.3 1140.8L577.8 1139.9L577.5 1139.5L576.701 1138.9L576.201 1138.7L575.201 1138.3L574.1 1138L573 1137.8L566.901 1137.2L565 1136.8L564 1136.5L562.6 1136L561.6 1135.7L560.6 1135.3L558.401 1134.2L557.6 1133.6L556.6 1133L555.8 1132.4L554.701 1131.5L554.1 1130.7L553.5 1129.7L553.1 1128.7L552.701 1127.4L552.5 1126.4L552.3 1125L552.201 1123L552.3 1122L552.401 1120.5L552.6 1119.5L552.901 1118.7L553.201 1117.7L553.8 1116.3L554.201 1115.4L554.701 1114.6L555.3 1113.9L556.3 1112.9L557.1 1112.3L557.901 1111.7L558.8 1111.3L560 1110.6L561.901 1109.8L562.901 1109.5L564.401 1109.2L565.401 1109L567.3 1108.7L568.701 1108.4L569.701 1108.3L570.701 1108.2H571.701L573.6 1108.4L574.6 1108.5L575 1108.6L576 1108.7L578.201 1109.1L579.3 1109.4L580.3 1109.7L581.401 1110L582.401 1110.4L583.401 1110.8L584.401 1111.2L585.6 1111.9L586.5 1112.3L587.3 1112.9L587.901 1113.5V1114.1L587.5 1114.8L586.8 1116.1L586.3 1116.9L583.901 1120.1L583.201 1121L582.401 1121.6L581.901 1121.8L581.5 1121.7L580.901 1121.4L579.901 1120.8L578.901 1120.4L578.5 1120.2L577.5 1119.9L577 1119.8L575.901 1119.5L574.401 1119.2L573.401 1119.1L571.701 1119H570L568.901 1119.1L567.8 1119.3L566.8 1119.6L566.401 1119.8L565.6 1120.4L565.3 1120.8L564.901 1121.7L564.8 1122.7L565 1123.5L565.5 1124.3L566.201 1124.9L567 1125.3L567.401 1125.5L568.401 1125.7L570 1125.9L572.201 1126L573.3 1126.2L575.5 1126.7L577.5 1127.3L579 1127.6L580 1127.9L581.8 1128.5L583.1 1129.1L584 1129.5L584.901 1130L585.701 1130.5L587.6 1132L588.3 1132.8L588.901 1133.6L589.701 1134.7L590.201 1135.5L590.6 1136.5L590.901 1137.5L591.201 1138.9L591.3 1139.9L591.8 1141.3Z" fill="white"/>
<path d="M639.4 1149.8L638.9 1150.3L637.8 1151.3L637 1151.9L635.8 1152.8L635 1153.3L633.7 1154L632.9 1154.4L631.4 1155.1L630.4 1155.4L629.3 1155.7L628.2 1155.9L626.6 1156.2L624.4 1156.5L623.2 1156.6L621.6 1156.7H618.3L617.2 1156.6L616.1 1156.5L615 1156.3L613.9 1156L612.9 1155.7L610 1154.9L608.6 1154.4L607.8 1154L606.6 1153.3L605.8 1152.7L605 1152.1L604.1 1151.5L602.4 1150.1L601.6 1149.3L600.9 1148.5L600.2 1147.5L599.6 1146.6L599.1 1145.7L598.7 1144.8L598.1 1143.5L597.1 1140.8L596.7 1139.5L596.1 1137.6L596 1136.6L595.9 1135.1L596 1134.1L596.1 1133.1V1132L596.2 1129.8L596.3 1128.8L596.5 1127.8L596.8 1126.4L597.1 1125.4L597.4 1124.4L597.7 1123.5L598.1 1122.2L598.5 1121.3L598.9 1120.3L599.4 1119.3L600 1118.3L600.6 1117.4L601.2 1116.6L601.9 1115.7L602.7 1114.9L603.5 1114.2L604.3 1113.5L605.1 1112.9L607.1 1111.5L607.9 1111L608.8 1110.5L610.7 1109.6L611.8 1109.2L612.8 1108.9L615 1108.4L616.1 1108.2L617.2 1108.1L619.2 1108L620.6 1107.9L621.6 1108L623 1108.1L625.4 1108.4L626.3 1108.6L627.8 1108.9L630 1109.5L630.9 1109.9L632.3 1110.7L633.2 1111.2L634.9 1112.3L636.9 1113.7L637.6 1114.2L638 1114.5L638.4 1114.9L638.5 1115.4L638.4 1115.9L638 1116.4L637.4 1117.1L636.7 1117.8L636 1118.4L635.3 1119L634.6 1119.7L633.5 1121L632.8 1121.8L632.5 1122.1L631.9 1122.6L631.5 1122.8L631.1 1122.9L630.7 1122.8L630 1122.4L628.8 1121.5L628 1121.1L626.6 1120.5L625.7 1120.2L624.3 1119.8L623.3 1119.6L621.7 1119.5H620.7L619.3 1119.6L618.3 1119.9L616.9 1120.3L615.9 1120.7L615.1 1121L613.8 1121.6L612.9 1122.2L612.5 1122.6L611.7 1123.4L611.1 1124.3L610.7 1125.1L610.3 1126L609.9 1127L609.6 1128L609.4 1129.1L609.3 1130.1L609.2 1132V1133L609.3 1134.6L609.4 1135.6L609.7 1137.1L610 1138.1L610.4 1139.2L610.9 1140.2L611.9 1141.6L612.6 1142.4L613.8 1143.4L614.6 1144L615.9 1144.6L616.9 1145L618.3 1145.4L619.3 1145.6L620.8 1145.7H622.3L623.2 1145.5L623.7 1145.4L624.7 1145.1L626.3 1144.5L627.3 1144.1L628.3 1143.7L629.1 1143.3L630.3 1142.5L631.1 1141.9L631.7 1141.5L632.1 1141.4L632.7 1141.5L633.4 1141.9L634.1 1142.5L634.4 1142.9L635 1143.6L636 1144.9L636.6 1145.7L638.3 1147.7L638.9 1148.5L639.2 1148.8L639.5 1149.4V1149.8H639.4Z" fill="white"/>
<path d="M695.7 1153.9L695.901 1154.8L695.5 1155.5L694.801 1155.8L694 1155.9H693.1L691.6 1155.8L690.6 1155.7H687.7L683.7 1156L682.901 1155.7L682.5 1155.2L682.2 1154.5L680.2 1149.1L679.801 1148.5L679.2 1148.4L678.401 1148.3L674.6 1148H673.6L668.801 1147.9L665 1147.8H664L663 1147.9H660.1L659.301 1148L658.801 1148.3L658.401 1149.1L656.901 1153.4L656.5 1154.4L655.801 1155.2L654.801 1155.6L653.801 1155.5L650.1 1155.3H649.1L645.1 1155.6L644.301 1155.7L643.5 1155.3L643 1154.6L643.1 1153.8L643.2 1153.3L643.6 1152.3L644.5 1150.3L644.901 1149.3L646.5 1145.7L646.901 1144.8L648.6 1141.2L649 1140.2L650.5 1136.8L650.901 1135.8L652.6 1132.2L653 1131.3L655.301 1126.1L657.1 1122.3L657.5 1121.3L658.901 1118.4L659.301 1117.4L660.5 1114.5L660.901 1113.5L662 1110.9L662.301 1110.2L662.901 1109.8L663.901 1109.6L666.801 1109.5H671.801L674.7 1109.6L675.801 1109.8L676.5 1110.3L676.801 1111.1L677.7 1113.6L678.1 1114.6L679.7 1117.6L680.1 1118.5L681.5 1121.6L681.901 1122.5L683.1 1125.8L683.5 1126.7L684.901 1129.8L685.301 1130.7L686.7 1133.8L687.1 1134.7L688.401 1137.9L688.801 1138.8L690.801 1142.8L692.301 1145.8L692.7 1146.7L694.401 1150.7L695.7 1153.9ZM674.401 1135.9L674.1 1135.1L672.7 1130.8L672.401 1129.8L671.1 1126L670.801 1125.2L670.2 1124.8L669.401 1124.6L668.7 1124.8L668.1 1125.4L666.401 1129.7L666 1130.7L664.301 1135L664.1 1136L664.301 1136.8L665 1137.1L665.901 1137.2H669.901L672.901 1137.4L673.7 1137.1L674.2 1136.6L674.401 1135.9Z" fill="white"/>
<path d="M746.1 1119.6L746 1120.6V1130.1L746.2 1133.8V1134.8L746.3 1143.2V1144.3L746.2 1144.8L746.1 1145.9L745.9 1149L746 1152.7L745.9 1153.6L745.6 1154.4L745.1 1155.1L744.5 1155.5L743.9 1155.7L743 1155.8L739.7 1155.9L738.7 1156L737.1 1156.1H736.1L735.3 1155.9L734.5 1155.6L733.7 1155L733.1 1154.2L732.1 1152.3L731.5 1151.5L729 1148.4L728.4 1147.6L725.9 1144.5L725.3 1143.7L723.1 1140.4L722.5 1139.6L720 1136.5L719.4 1135.7L717 1132.6L716.4 1132.1L716 1132.3L715.8 1133.1L715.7 1136.3V1137.3L715.8 1140.5V1141.5L715.9 1145.1V1146.1L715.7 1149.7L715.8 1150.7L716.2 1153.3L716.3 1154.3L716.1 1155.1L715.7 1155.5L715.3 1155.6L714.5 1155.7L714 1155.8L712.9 1155.9L710 1155.8H709L706.4 1155.9H705.4L704.4 1155.8L703.7 1155.7L703.2 1155.4L702.9 1155L702.8 1154.4L702.7 1154V1153L702.8 1150.9L702.9 1149.9L702.7 1146.5V1145.5L702.8 1137.7L702.9 1136.7L703.1 1133.3L703.2 1132.3V1127.9L702.9 1124.5V1123.5L703.2 1120.1L703.1 1119.1L702.8 1115.7L702.7 1114.7V1113.2L702.8 1112.2L702.9 1111.2L703 1110.5L703.2 1110.1L703.6 1109.9L704.3 1109.8L706.2 1109.7L708.1 1109.8H712.9L713.7 1109.9L714 1110.2L714.4 1110.8L717.1 1113.7L717.7 1114.5L720.1 1117.6L720.7 1118.4L723.1 1121.5L723.7 1122.3L726 1125.5L726.6 1126.3L729 1129.4L729.6 1130.2L731.9 1133.4L732.4 1133.8L732.9 1133.9L733.3 1133.6V1132.9L732.9 1130.2L732.8 1129.2L733 1126.5V1125.5L732.7 1121.6V1120.6L733 1116.7L732.9 1115.7L732.7 1113.3V1111.7L732.9 1110.9L733.2 1110.4L733.6 1110.1L734.4 1110H735L736.1 1109.9L739 1110.1H740L742.2 1110L743.2 1110.1L744.7 1110.2L745.4 1110.3L745.8 1110.5L746.2 1110.9L746.3 1111.8L746.4 1112.4L746.5 1113.5L746.4 1115.5L746.3 1116.5L746.1 1119.6Z" fill="white"/>
</svg>
