<svg width="14" height="17" viewBox="0 0 14 17" fill="none" xmlns="http://www.w3.org/2000/svg">
<path d="M7 8.5C9.20938 8.5 11 6.59746 11 4.25C11 1.90254 9.20938 0 7 0C4.79063 0 3 1.90254 3 4.25C3 6.59746 4.79063 8.5 7 8.5ZM9.8 9.5625H9.27812C8.58437 9.90117 7.8125 10.0938 7 10.0938C6.1875 10.0938 5.41875 9.90117 4.72188 9.5625H4.2C1.88125 9.5625 0 11.5613 0 14.025V15.4062C0 16.2861 0.671875 17 1.5 17H12.5C13.3281 17 14 16.2861 14 15.4062V14.025C14 11.5613 12.1187 9.5625 9.8 9.5625Z" fill="#D9D9D9"/>
</svg>
